# xmcd
#
# Track frame offsets:
#   150
#   14822
#   28275
#   42020
#   58635
#   74300
#   86530
#   105557
#   121207
#   135167
#   151907
#   164937
#   179120
#   190837
#   202520
#   215135
#   230747
#   244580
#   259157
#   272110
#
# Disc length: 3710 seconds
#
# Revision: 0
# Processed by: cddbd v1.5.2PL0 Copyright (c) Steve Scherf et al.
# Submitted via: GXTranscoder 2.0.1939
#
DISCID=240e7c14
DTITLE=Varios - Forro - ele and ela
DYEAR=1900
DGENRE=Country
TTITLE0=A Loira e a Morena - Mastruz com leite
TTITLE1=O casamento da filha do faceta - Catuaba com amend
TTITLE2="Mule" fogosa - Cavalo de pau
TTITLE3=Meu vicio - Rabo de saia
TTITLE4=Dois rubis - Mastruz com Leite
TTITLE5=Mulher enjoada - Janaina dos teclados
TTITLE6=Mensagem da carta - Rita de Cassia and Redondo
TTITLE7=Eu e voce - Mel com terra
TTITLE8=Asa de frango e mais forte que viagra - Patativa d
TTITLE9=Pout pourri - Wesley do teclados (Raizes do nordes
TTITLE10=Voce me magoou - Capital do sol
TTITLE11=Belina azul - Calango aceso
TTITLE12=Bom de chibata - Black Banda
TTITLE13=Forro do vira e mexe - Banda Styllus
TTITLE14=Eu vou, e dai - Banda Aquarius
TTITLE15=Dois amores - Forrozão Baião de dois
TTITLE16=Baby cansei - Agua de cheiro
TTITLE17=Nada vai nos separar - Banda Tatuagem
TTITLE18=Vem dançar forro - Drops de hortela
TTITLE19=Corno Modelo(Melo do bigulim) - Brasão do Forro
EXTD=
EXTT0=
EXTT1=
EXTT2=
EXTT3=
EXTT4=
EXTT5=
EXTT6=
EXTT7=
EXTT8=
EXTT9=
EXTT10=
EXTT11=
EXTT12=
EXTT13=
EXTT14=
EXTT15=
EXTT16=
EXTT17=
EXTT18=
EXTT19=
PLAYORDER=
